<svg width="57" height="57" viewBox="0 0 57 57" fill="none" xmlns="http://www.w3.org/2000/svg">
<circle cx="29" cy="28" r="28" fill="#7F3DFF"/>
<mask id="path-2-inside-1_4078_517" fill="white">
<path d="M29.5305 29.5306L39.5361 29.5306C39.7079 29.5439 39.8805 29.5215 40.0432 29.4649C40.2059 29.4083 40.3552 29.3187 40.4816 29.2017C40.6081 29.0846 40.7089 28.9427 40.7779 28.7849C40.8469 28.627 40.8825 28.4566 40.8825 28.2843C40.8825 28.112 40.8469 27.9416 40.7779 27.7838C40.7089 27.6259 40.6081 27.484 40.4816 27.367C40.3552 27.2499 40.2059 27.1603 40.0432 27.1037C39.8805 27.0471 39.7079 27.0247 39.5361 27.038L29.5305 27.038L29.5305 17.0325C29.5062 16.7186 29.3644 16.4254 29.1334 16.2116C28.9023 15.9977 28.5991 15.8789 28.2843 15.8789C27.9694 15.8789 27.6662 15.9977 27.4351 16.2116C27.2041 16.4254 27.0623 16.7186 27.038 17.0325L27.038 27.038L17.0324 27.038C16.7022 27.039 16.3858 27.1706 16.1523 27.4041C15.9187 27.6377 15.7871 27.9541 15.7861 28.2843C15.7871 28.6145 15.9187 28.931 16.1523 29.1645C16.3858 29.398 16.7022 29.5296 17.0324 29.5306L27.038 29.5306L27.038 39.5361C27.039 39.8664 27.1706 40.1828 27.4041 40.4163C27.6376 40.6498 27.954 40.7814 28.2843 40.7824C28.6145 40.7814 28.9309 40.6498 29.1644 40.4163C29.3979 40.1828 29.5295 39.8664 29.5305 39.5361L29.5305 29.5306Z"/>
</mask>
<path d="M29.5305 29.5306L39.5361 29.5306C39.7079 29.5439 39.8805 29.5215 40.0432 29.4649C40.2059 29.4083 40.3552 29.3187 40.4816 29.2017C40.6081 29.0846 40.7089 28.9427 40.7779 28.7849C40.8469 28.627 40.8825 28.4566 40.8825 28.2843C40.8825 28.112 40.8469 27.9416 40.7779 27.7838C40.7089 27.6259 40.6081 27.484 40.4816 27.367C40.3552 27.2499 40.2059 27.1603 40.0432 27.1037C39.8805 27.0471 39.7079 27.0247 39.5361 27.038L29.5305 27.038L29.5305 17.0325C29.5062 16.7186 29.3644 16.4254 29.1334 16.2116C28.9023 15.9977 28.5991 15.8789 28.2843 15.8789C27.9694 15.8789 27.6662 15.9977 27.4351 16.2116C27.2041 16.4254 27.0623 16.7186 27.038 17.0325L27.038 27.038L17.0324 27.038C16.7022 27.039 16.3858 27.1706 16.1523 27.4041C15.9187 27.6377 15.7871 27.9541 15.7861 28.2843C15.7871 28.6145 15.9187 28.931 16.1523 29.1645C16.3858 29.398 16.7022 29.5296 17.0324 29.5306L27.038 29.5306L27.038 39.5361C27.039 39.8664 27.1706 40.1828 27.4041 40.4163C27.6376 40.6498 27.954 40.7814 28.2843 40.7824C28.6145 40.7814 28.9309 40.6498 29.1644 40.4163C29.3979 40.1828 29.5295 39.8664 29.5305 39.5361L29.5305 29.5306Z" fill="black"/>
<path d="M29.5305 29.5306L29.5305 27.0306L27.0305 27.0306L27.0305 29.5306L29.5305 29.5306ZM39.5361 29.5306L39.7289 27.038L39.6327 27.0306H39.5361L39.5361 29.5306ZM39.5361 27.038L39.5361 29.538H39.6327L39.7289 29.5306L39.5361 27.038ZM29.5305 27.038L27.0305 27.038L27.0305 29.538H29.5305L29.5305 27.038ZM29.5305 17.0325L32.0305 17.0325V16.9359L32.0231 16.8396L29.5305 17.0325ZM27.038 17.0325L24.5454 16.8396L24.538 16.9359V17.0325L27.038 17.0325ZM27.038 27.038L27.038 29.538H29.538L29.538 27.038H27.038ZM17.0324 27.038L17.0324 24.538L17.025 24.538L17.0324 27.038ZM15.7861 28.2843L13.2862 28.2769L13.2861 28.2843L13.2862 28.2917L15.7861 28.2843ZM17.0324 29.5306L17.025 32.0306L17.0324 32.0306L17.0324 29.5306ZM27.038 29.5306H29.538V27.0306H27.038V29.5306ZM27.038 39.5361L24.538 39.5361L24.538 39.5436L27.038 39.5361ZM28.2843 40.7824L28.2768 43.2824L28.2843 43.2824L28.2917 43.2824L28.2843 40.7824ZM29.5305 39.5361L32.0305 39.5436L32.0305 39.5361L29.5305 39.5361ZM29.5305 32.0306L39.5361 32.0306L39.5361 27.0306L29.5305 27.0306L29.5305 32.0306ZM39.3433 32.0231C39.8585 32.063 40.3765 31.9959 40.8646 31.8261L39.2218 27.1037C39.3845 27.0471 39.5572 27.0247 39.7289 27.038L39.3433 32.0231ZM40.8646 31.8261C41.3528 31.6563 41.8005 31.3874 42.1798 31.0363L38.7834 27.367C38.9098 27.2499 39.0591 27.1603 39.2218 27.1037L40.8646 31.8261ZM42.1798 31.0363C42.5591 30.6853 42.8618 30.2596 43.0687 29.786L38.4871 27.7838C38.5561 27.6259 38.657 27.484 38.7834 27.367L42.1798 31.0363ZM43.0687 29.786C43.2757 29.3124 43.3825 28.8011 43.3825 28.2843L38.3825 28.2843C38.3825 28.112 38.4181 27.9416 38.4871 27.7838L43.0687 29.786ZM43.3825 28.2843C43.3825 27.7675 43.2757 27.2562 43.0687 26.7826L38.4871 28.7849C38.4181 28.627 38.3825 28.4566 38.3825 28.2843L43.3825 28.2843ZM43.0687 26.7826C42.8618 26.3091 42.5591 25.8834 42.1798 25.5323L38.7834 29.2017C38.657 29.0846 38.5561 28.9427 38.4871 28.7849L43.0687 26.7826ZM42.1798 25.5323C41.8006 25.1812 41.3528 24.9123 40.8646 24.7425L39.2218 29.4649C39.0591 29.4083 38.9098 29.3187 38.7834 29.2017L42.1798 25.5323ZM40.8646 24.7425C40.3765 24.5727 39.8585 24.5056 39.3432 24.5455L39.7289 29.5306C39.5572 29.5439 39.3845 29.5215 39.2218 29.4649L40.8646 24.7425ZM39.5361 24.538L29.5305 24.538L29.5305 29.538L39.5361 29.538L39.5361 24.538ZM32.0305 27.038L32.0305 17.0325L27.0305 17.0325L27.0305 27.038L32.0305 27.038ZM32.0231 16.8396C31.9502 15.898 31.5247 15.0185 30.8316 14.3769L27.4351 18.0462C27.2041 17.8324 27.0623 17.5392 27.038 17.2253L32.0231 16.8396ZM30.8316 14.3769C30.1384 13.7353 29.2287 13.3789 28.2843 13.3789L28.2843 18.3789C27.9694 18.3789 27.6662 18.2601 27.4351 18.0462L30.8316 14.3769ZM28.2843 13.3789C27.3398 13.3789 26.4301 13.7353 25.7369 14.3769L29.1334 18.0462C28.9023 18.2601 28.5991 18.3789 28.2843 18.3789L28.2843 13.3789ZM25.7369 14.3769C25.0438 15.0185 24.6183 15.898 24.5454 16.8396L29.5305 17.2253C29.5062 17.5392 29.3644 17.8324 29.1334 18.0462L25.7369 14.3769ZM24.538 17.0325L24.538 27.038H29.538L29.538 17.0325L24.538 17.0325ZM27.038 24.538L17.0324 24.538L17.0324 29.538L27.038 29.538L27.038 24.538ZM17.025 24.538C16.0343 24.541 15.085 24.9358 14.3845 25.6364L17.92 29.1719C17.6865 29.4054 17.3701 29.537 17.0399 29.538L17.025 24.538ZM14.3845 25.6364C13.684 26.3369 13.2891 27.2862 13.2862 28.2769L18.2861 28.2917C18.2851 28.622 18.1535 28.9384 17.92 29.1719L14.3845 25.6364ZM13.2862 28.2917C13.2891 29.2824 13.684 30.2317 14.3845 30.9322L17.92 27.3967C18.1535 27.6302 18.2851 27.9466 18.2861 28.2769L13.2862 28.2917ZM14.3845 30.9322C15.085 31.6328 16.0343 32.0276 17.025 32.0306L17.0399 27.0306C17.3701 27.0316 17.6865 27.1632 17.92 27.3967L14.3845 30.9322ZM17.0324 32.0306L27.038 32.0306V27.0306L17.0324 27.0306L17.0324 32.0306ZM24.538 29.5306V39.5361L29.538 39.5361L29.538 29.5306H24.538ZM24.538 39.5436C24.5409 40.5343 24.9358 41.4836 25.6363 42.1841L29.1719 38.6485C29.4054 38.8821 29.537 39.1985 29.538 39.5287L24.538 39.5436ZM25.6363 42.1841C26.3368 42.8846 27.2861 43.2795 28.2768 43.2824L28.2917 38.2824C28.6219 38.2834 28.9383 38.415 29.1719 38.6485L25.6363 42.1841ZM28.2917 43.2824C29.2824 43.2795 30.2317 42.8846 30.9322 42.1841L27.3967 38.6485C27.6302 38.415 27.9466 38.2834 28.2768 38.2824L28.2917 43.2824ZM30.9322 42.1841C31.6327 41.4836 32.0276 40.5343 32.0305 39.5436L27.0305 39.5287C27.0315 39.1985 27.1631 38.8821 27.3967 38.6485L30.9322 42.1841ZM32.0305 39.5361V29.5306L27.0305 29.5306L27.0305 39.5361L32.0305 39.5361Z" fill="#FCFCFC" mask="url(#path-2-inside-1_4078_517)"/>
</svg>
